<svg xmlns="http://www.w3.org/2000/svg" viewBox="0 0 1280 250" width="1280" height="250" role="img" aria-label="SGI / INDUSTRIAL KPIs - B/G deploy model. Executive dashboard for industrial KPIs - trends, targets and Excel ingestion."><path d="M29.8 8.0L37.2 7.6L43.7 8.0L50.7 7.7L58.7 8.1L65.0 7.6L72.9 8.5L79.3 8.4L86.1 8.1L92.8 9.0L99.5 8.7L107.2 9.0L114.3 8.8L120.6 10.0L128.3 9.4L134.8 9.9L143.4 8.6L149.8 9.9L157.1 9.7L163.7 10.2L169.7 10.6L176.8 10.7L184.2 9.9L191.7 9.7L198.8 10.9L205.8 11.0L212.1 10.2L219.0 10.9L226.0 10.1L233.1 10.3L240.2 9.6L247.2 10.4L254.5 10.7L260.7 9.9L268.2 10.3L275.4 11.1L283.0 10.5L289.8 9.4L295.7 11.5L304.9 10.4L310.2 10.8L317.4 10.5L324.2 10.2L331.4 11.8L337.3 10.6L345.0 11.5L352.2 12.0L360.1 12.4L367.3 12.4L374.3 11.6L380.1 11.7L387.7 12.6L393.3 11.7L401.6 11.9L408.9 12.2L415.7 12.8L423.8 12.8L430.2 11.4L437.0 11.3L442.8 11.5L449.6 11.1L457.5 11.0L465.5 10.3L473.0 10.1L478.7 10.6L485.2 10.3L492.6 9.1L499.1 9.2L506.7 8.7L513.2 9.1L521.1 7.4L528.3 7.6L535.5 7.2L540.9 7.7L549.3 7.4L555.8 6.4L561.5 7.6L570.5 8.9L577.7 7.4L583.7 7.0L591.6 5.1L597.2 6.4L604.6 6.2L611.8 7.1L619.4 7.4L626.0 7.6L632.2 7.9L640.1 7.3L647.6 6.3L653.8 7.1L660.4 8.0L667.5 7.1L675.2 7.2L682.0 8.1L688.2 6.9L696.9 8.2L703.2 7.7L709.4 8.1L716.5 8.5L724.5 8.2L730.6 7.4L738.1 8.7L744.6 8.6L751.1 7.7L758.9 9.0L766.2 8.5L773.3 8.8L780.6 8.0L787.4 8.3L793.4 7.2L802.0 8.0L807.7 8.2L815.2 8.3L821.9 6.5L829.7 7.6L836.8 8.1L843.2 6.4L849.9 7.4L858.1 6.3L863.6 6.9L871.0 7.8L878.3 5.3L885.3 5.7L892.1 6.6L900.2 6.2L906.0 5.2L914.1 6.0L921.1 5.9L927.4 6.2L933.9 6.0L942.7 5.3L948.1 5.4L954.8 5.2L962.1 6.0L969.1 5.4L976.6 5.1L985.0 5.4L990.9 4.2L996.0 5.2L1004.4 5.0L1011.4 5.4L1017.8 4.5L1025.8 5.3L1033.0 5.0L1040.2 5.2L1046.7 5.0L1054.2 5.7L1061.7 3.9L1068.3 4.6L1075.2 4.4L1081.3 5.4L1088.5 5.8L1096.7 5.5L1103.0 5.0L1109.6 3.9L1116.6 4.1L1123.5 4.8L1131.7 4.2L1137.0 5.1L1144.6 5.4L1152.3 4.5L1158.4 4.8L1166.0 5.0L1172.8 4.8L1180.0 5.5L1186.2 5.8L1193.0 5.6L1200.5 6.1L1207.3 7.1L1214.8 6.4L1222.0 6.8L1228.8 6.0L1236.2 6.9L1243.1 7.5L1249.4 7.7L1256.3 8.6L1262.3 12.1L1266.8 18.1L1270.7 24.0L1271.5 29.7L1271.5 35.9L1270.4 44.9L1271.0 51.5L1272.4 56.9L1273.1 65.2L1271.8 71.4L1272.0 78.9L1271.7 86.4L1271.7 93.0L1271.0 100.1L1271.4 106.4L1271.8 113.4L1271.9 121.7L1272.6 127.9L1271.8 134.5L1272.2 142.4L1272.6 149.1L1272.2 155.8L1271.9 162.4L1272.0 170.1L1272.6 177.4L1272.4 184.7L1271.1 190.6L1272.3 198.2L1270.6 205.0L1267.5 211.8L1262.1 216.7L1256.8 218.0L1249.2 220.2L1243.3 220.7L1235.9 221.2L1228.0 219.6L1221.8 219.3L1214.4 220.2L1208.7 219.6L1200.9 220.4L1193.6 219.1L1185.8 219.4L1179.8 219.1L1173.5 217.6L1165.6 218.5L1158.9 218.6L1151.4 218.1L1144.9 218.7L1137.7 217.1L1130.2 217.9L1123.4 217.6L1116.4 217.8L1109.8 216.9L1103.1 217.4L1095.9 216.6L1088.6 217.4L1081.8 217.5L1074.7 217.1L1067.7 216.9L1061.2 217.2L1053.9 216.4L1047.2 216.9L1039.3 217.7L1032.7 218.2L1026.2 218.3L1019.4 218.0L1012.1 218.7L1004.8 218.2L996.9 219.8L990.3 220.7L982.7 220.8L976.8 221.7L970.0 223.3L962.2 222.7L956.1 222.6L949.1 224.4L941.8 224.2L933.4 224.9L927.7 224.3L919.4 225.8L913.7 225.7L905.8 226.5L899.9 225.8L891.7 226.8L885.8 226.1L879.1 226.6L871.6 227.1L863.7 226.1L856.9 226.6L851.1 226.9L843.3 226.4L836.8 226.7L828.5 226.3L822.6 225.9L815.1 226.0L808.4 224.5L801.9 226.2L794.5 224.8L787.1 225.8L779.8 225.0L773.9 224.0L766.0 225.6L758.5 224.9L752.4 224.9L746.3 224.2L737.1 224.9L731.4 224.7L724.4 224.7L716.6 225.0L710.5 224.1L701.9 224.2L696.7 224.1L689.6 224.2L681.7 225.3L675.2 224.6L668.0 224.3L660.3 224.7L654.0 224.4L647.6 224.3L640.4 224.9L632.8 225.2L624.8 226.5L619.4 226.2L611.2 224.8L604.7 225.7L597.5 226.0L590.0 226.8L583.1 225.3L576.5 227.0L570.7 226.8L563.4 226.8L555.8 226.7L548.6 226.6L541.8 227.6L534.7 227.5L528.6 227.0L520.6 227.7L513.7 227.5L506.3 227.9L499.6 228.9L493.1 226.1L485.6 226.2L478.8 226.7L471.0 226.3L464.2 227.1L457.0 226.5L450.7 225.5L443.9 225.7L436.8 224.4L428.8 223.9L422.8 224.3L415.8 224.0L408.2 223.6L402.0 222.7L396.3 223.1L386.9 222.4L381.6 221.0L372.7 222.3L366.2 221.5L359.9 222.2L352.7 220.6L345.6 221.7L337.7 221.1L330.7 222.0L324.2 220.4L318.0 221.1L311.6 221.3L303.0 221.2L296.1 221.3L289.1 221.9L282.6 221.8L275.2 220.9L268.7 220.5L261.4 220.9L254.3 221.4L246.7 222.1L241.0 221.7L233.6 222.1L225.4 221.9L220.2 223.2L212.1 221.5L205.6 222.5L198.1 222.6L190.2 222.5L183.8 223.1L177.1 222.5L170.5 222.2L162.6 222.2L156.6 222.4L148.8 223.0L142.0 222.3L134.9 222.7L127.2 222.4L121.8 223.2L114.5 221.9L107.6 223.1L100.0 223.3L92.3 223.0L86.4 222.8L78.8 223.2L71.7 224.7L65.3 223.5L57.9 224.7L50.7 224.5L44.3 223.6L36.3 224.0L30.2 224.9L21.3 223.0L14.5 219.5L8.3 213.7L4.6 206.1L3.2 198.1L2.6 191.6L2.8 183.8L3.1 176.9L2.7 170.3L3.8 164.2L3.7 155.1L3.4 149.5L2.7 142.6L4.5 135.4L4.2 128.6L4.7 120.7L4.4 114.0L4.7 106.4L5.0 100.7L5.5 91.9L5.4 86.3L5.9 78.8L6.0 71.4L6.7 65.1L6.6 58.4L7.8 51.6L7.5 43.9L7.9 37.2L8.2 30.5L9.3 23.3L12.8 16.3L17.5 12.0L22.0 8.6L29.8 8.0Z" fill="#0a0a0a"/><path d="M29.8 8.0L37.2 7.6L43.7 8.0L50.7 7.7L58.7 8.1L65.0 7.6L72.9 8.5L79.3 8.4L86.1 8.1L92.8 9.0L99.5 8.7L107.2 9.0L114.3 8.8L120.6 10.0L128.3 9.4L134.8 9.9L143.4 8.6L149.8 9.9L157.1 9.7L163.7 10.2L169.7 10.6L176.8 10.7L184.2 9.9L191.7 9.7L198.8 10.9L205.8 11.0L212.1 10.2L219.0 10.9L226.0 10.1L233.1 10.3L240.2 9.6L247.2 10.4L254.5 10.7L260.7 9.9L268.2 10.3L275.4 11.1L283.0 10.5L289.8 9.4L295.7 11.5L304.9 10.4L310.2 10.8L317.4 10.5L324.2 10.2L331.4 11.8L337.3 10.6L345.0 11.5L352.2 12.0L360.1 12.4L367.3 12.4L374.3 11.6L380.1 11.7L387.7 12.6L393.3 11.7L401.6 11.9L408.9 12.2L415.7 12.8L423.8 12.8L430.2 11.4L437.0 11.3L442.8 11.5L449.6 11.1L457.5 11.0L465.5 10.3L473.0 10.1L478.7 10.6L485.2 10.3L492.6 9.1L499.1 9.2L506.7 8.7L513.2 9.1L521.1 7.4L528.3 7.6L535.5 7.2L540.9 7.7L549.3 7.4L555.8 6.4L561.5 7.6L570.5 8.9L577.7 7.4L583.7 7.0L591.6 5.1L597.2 6.4L604.6 6.2L611.8 7.1L619.4 7.4L626.0 7.6L632.2 7.9L640.1 7.3L647.6 6.3L653.8 7.1L660.4 8.0L667.5 7.1L675.2 7.2L682.0 8.1L688.2 6.9L696.9 8.2L703.2 7.7L709.4 8.1L716.5 8.5L724.5 8.2L730.6 7.4L738.1 8.7L744.6 8.6L751.1 7.7L758.9 9.0L766.2 8.5L773.3 8.8L780.6 8.0L787.4 8.3L793.4 7.2L802.0 8.0L807.7 8.2L815.2 8.3L821.9 6.5L829.7 7.6L836.8 8.1L843.2 6.4L849.9 7.4L858.1 6.3L863.6 6.9L871.0 7.8L878.3 5.3L885.3 5.7L892.1 6.6L900.2 6.2L906.0 5.2L914.1 6.0L921.1 5.9L927.4 6.2L933.9 6.0L942.7 5.3L948.1 5.4L954.8 5.2L962.1 6.0L969.1 5.4L976.6 5.1L985.0 5.4L990.9 4.2L996.0 5.2L1004.4 5.0L1011.4 5.4L1017.8 4.5L1025.8 5.3L1033.0 5.0L1040.2 5.2L1046.7 5.0L1054.2 5.7L1061.7 3.9L1068.3 4.6L1075.2 4.4L1081.3 5.4L1088.5 5.8L1096.7 5.5L1103.0 5.0L1109.6 3.9L1116.6 4.1L1123.5 4.8L1131.7 4.2L1137.0 5.1L1144.6 5.4L1152.3 4.5L1158.4 4.8L1166.0 5.0L1172.8 4.8L1180.0 5.5L1186.2 5.8L1193.0 5.6L1200.5 6.1L1207.3 7.1L1214.8 6.4L1222.0 6.8L1228.8 6.0L1236.2 6.9L1243.1 7.5L1249.4 7.7L1256.3 8.6L1262.3 12.1L1266.8 18.1L1270.7 24.0L1271.5 29.7L1271.5 35.9L1270.4 44.9L1271.0 51.5L1272.4 56.9L1273.1 65.2L1271.8 71.4L1272.0 78.9L1271.7 86.4L1271.7 93.0L1271.0 100.1L1271.4 106.4L1271.8 113.4L1271.9 121.7L1272.6 127.9L1271.8 134.5L1272.2 142.4L1272.6 149.1L1272.2 155.8L1271.9 162.4L1272.0 170.1L1272.6 177.4L1272.4 184.7L1271.1 190.6L1272.3 198.2L1270.6 205.0L1267.5 211.8L1262.1 216.7L1256.8 218.0L1249.2 220.2L1243.3 220.7L1235.9 221.2L1228.0 219.6L1221.8 219.3L1214.4 220.2L1208.7 219.6L1200.9 220.4L1193.6 219.1L1185.8 219.4L1179.8 219.1L1173.5 217.6L1165.6 218.5L1158.9 218.6L1151.4 218.1L1144.9 218.7L1137.7 217.1L1130.2 217.9L1123.4 217.6L1116.4 217.8L1109.8 216.9L1103.1 217.4L1095.9 216.6L1088.6 217.4L1081.8 217.5L1074.7 217.1L1067.7 216.9L1061.2 217.2L1053.9 216.4L1047.2 216.9L1039.3 217.7L1032.7 218.2L1026.2 218.3L1019.4 218.0L1012.1 218.7L1004.8 218.2L996.9 219.8L990.3 220.7L982.7 220.8L976.8 221.7L970.0 223.3L962.2 222.7L956.1 222.6L949.1 224.4L941.8 224.2L933.4 224.9L927.7 224.3L919.4 225.8L913.7 225.7L905.8 226.5L899.9 225.8L891.7 226.8L885.8 226.1L879.1 226.6L871.6 227.1L863.7 226.1L856.9 226.6L851.1 226.9L843.3 226.4L836.8 226.7L828.5 226.3L822.6 225.9L815.1 226.0L808.4 224.5L801.9 226.2L794.5 224.8L787.1 225.8L779.8 225.0L773.9 224.0L766.0 225.6L758.5 224.9L752.4 224.9L746.3 224.2L737.1 224.9L731.4 224.7L724.4 224.7L716.6 225.0L710.5 224.1L701.9 224.2L696.7 224.1L689.6 224.2L681.7 225.3L675.2 224.6L668.0 224.3L660.3 224.7L654.0 224.4L647.6 224.3L640.4 224.9L632.8 225.2L624.8 226.5L619.4 226.2L611.2 224.8L604.7 225.7L597.5 226.0L590.0 226.8L583.1 225.3L576.5 227.0L570.7 226.8L563.4 226.8L555.8 226.7L548.6 226.6L541.8 227.6L534.7 227.5L528.6 227.0L520.6 227.7L513.7 227.5L506.3 227.9L499.6 228.9L493.1 226.1L485.6 226.2L478.8 226.7L471.0 226.3L464.2 227.1L457.0 226.5L450.7 225.5L443.9 225.7L436.8 224.4L428.8 223.9L422.8 224.3L415.8 224.0L408.2 223.6L402.0 222.7L396.3 223.1L386.9 222.4L381.6 221.0L372.7 222.3L366.2 221.5L359.9 222.2L352.7 220.6L345.6 221.7L337.7 221.1L330.7 222.0L324.2 220.4L318.0 221.1L311.6 221.3L303.0 221.2L296.1 221.3L289.1 221.9L282.6 221.8L275.2 220.9L268.7 220.5L261.4 220.9L254.3 221.4L246.7 222.1L241.0 221.7L233.6 222.1L225.4 221.9L220.2 223.2L212.1 221.5L205.6 222.5L198.1 222.6L190.2 222.5L183.8 223.1L177.1 222.5L170.5 222.2L162.6 222.2L156.6 222.4L148.8 223.0L142.0 222.3L134.9 222.7L127.2 222.4L121.8 223.2L114.5 221.9L107.6 223.1L100.0 223.3L92.3 223.0L86.4 222.8L78.8 223.2L71.7 224.7L65.3 223.5L57.9 224.7L50.7 224.5L44.3 223.6L36.3 224.0L30.2 224.9L21.3 223.0L14.5 219.5L8.3 213.7L4.6 206.1L3.2 198.1L2.6 191.6L2.8 183.8L3.1 176.9L2.7 170.3L3.8 164.2L3.7 155.1L3.4 149.5L2.7 142.6L4.5 135.4L4.2 128.6L4.7 120.7L4.4 114.0L4.7 106.4L5.0 100.7L5.5 91.9L5.4 86.3L5.9 78.8L6.0 71.4L6.7 65.1L6.6 58.4L7.8 51.6L7.5 43.9L7.9 37.2L8.2 30.5L9.3 23.3L12.8 16.3L17.5 12.0L22.0 8.6L29.8 8.0Z" fill="none" stroke="#cfc9c0" stroke-width="3" stroke-linejoin="round" stroke-linecap="round" opacity="0.98"/><path d="M29.8 9.1L36.5 9.1L43.4 9.3L51.5 10.0L57.9 8.3L66.1 8.5L71.9 9.4L80.4 8.9L86.1 9.7L93.1 8.3L100.1 8.2L107.5 8.1L113.8 8.0L121.3 8.1L128.4 7.4L135.4 8.4L142.0 8.5L149.0 8.2L155.3 8.6L162.5 7.1L170.3 5.9L176.2 7.7L183.8 8.1L191.1 7.9L198.7 7.9L205.8 7.4L213.1 7.8L218.7 8.3L225.3 8.2L232.9 8.0L240.7 8.4L248.3 7.3L254.3 6.7L261.1 7.3L268.1 8.0L274.5 7.2L281.7 6.6L289.2 7.4L296.9 5.8L304.3 6.7L311.4 5.9L317.4 6.4L324.1 6.4L331.6 6.6L338.1 5.0L345.3 6.5L351.8 5.1L359.2 6.1L366.6 5.7L372.8 5.1L380.6 4.7L386.9 5.4L394.8 6.2L400.8 5.5L408.8 6.2L414.8 6.1L423.1 5.9L429.6 6.5L436.7 5.9L442.9 6.5L451.5 7.3L457.2 7.7L464.1 8.1L472.0 8.2L478.5 8.2L486.1 9.1L492.7 9.7L500.0 10.1L507.1 10.7L514.0 10.4L520.2 11.7L528.6 11.8L533.6 11.8L541.2 12.5L549.7 13.5L555.2 12.6L562.0 12.8L569.6 12.7L577.3 13.5L584.0 14.2L591.3 12.3L598.0 13.6L604.3 11.6L612.0 11.7L619.4 11.6L626.2 10.5L633.4 10.9L639.7 8.5L647.6 9.1L655.0 9.3L661.5 6.8L667.7 7.3L674.5 6.9L681.0 5.2L689.8 4.3L696.6 3.6L703.5 3.0L710.0 2.3L716.9 1.6L723.7 1.4L731.0 1.9L737.7 0.9L746.1 -0.7L751.3 -0.4L759.1 0.9L766.4 -0.4L772.1 -0.2L780.4 -0.6L787.6 0.9L793.9 0.8L802.3 1.0L807.4 0.1L814.3 2.1L822.4 1.5L829.0 1.6L837.3 2.4L844.3 2.9L851.4 3.0L857.5 3.5L864.5 3.9L871.5 5.6L878.1 4.7L885.3 4.1L893.1 5.5L899.3 5.9L906.9 5.7L913.2 5.5L920.5 6.2L927.1 6.7L934.5 6.5L941.1 6.8L948.3 7.4L955.7 6.4L962.3 6.7L969.9 6.3L975.9 7.0L983.9 6.8L990.8 6.8L997.8 6.8L1005.1 7.2L1011.8 7.0L1018.5 7.4L1025.7 6.6L1032.0 8.0L1040.6 6.3L1046.8 6.4L1053.9 6.3L1060.2 6.6L1066.8 7.2L1074.4 7.2L1082.4 7.3L1088.3 7.4L1096.6 6.5L1103.3 7.6L1109.6 7.7L1116.9 8.3L1123.5 7.7L1131.4 7.1L1138.3 7.6L1144.7 7.2L1152.1 8.8L1158.5 8.1L1165.1 7.6L1173.9 7.8L1179.2 8.9L1186.7 8.3L1194.6 8.9L1201.5 8.9L1208.0 8.9L1215.6 9.4L1222.1 9.8L1229.2 9.0L1235.0 8.9L1242.1 9.4L1248.4 10.1L1255.5 10.4L1261.3 13.4L1265.2 18.5L1267.8 24.7L1268.8 30.1L1269.6 37.5L1269.4 44.7L1269.1 51.1L1269.4 58.1L1269.2 64.9L1269.7 72.2L1268.5 79.1L1269.6 85.9L1270.2 93.4L1269.4 100.3L1269.6 106.8L1270.3 113.8L1269.9 120.3L1270.2 127.2L1270.4 135.0L1270.5 141.9L1270.4 149.9L1270.5 157.1L1271.1 162.9L1270.6 170.7L1269.9 177.3L1271.4 183.9L1270.6 191.0L1271.2 198.2L1270.0 204.5L1268.3 210.0L1261.9 215.9L1255.8 218.4L1250.2 219.0L1242.6 218.7L1235.9 219.9L1229.2 219.8L1221.5 219.0L1214.7 220.1L1208.1 220.1L1200.8 219.6L1193.8 219.5L1186.8 220.0L1179.0 220.0L1172.7 220.8L1165.8 219.7L1159.0 220.6L1151.9 219.9L1144.9 219.7L1138.1 220.4L1131.0 219.9L1123.7 220.6L1116.6 221.0L1108.8 220.7L1103.0 221.2L1096.1 221.3L1089.0 221.5L1080.5 220.8L1075.3 220.6L1067.7 221.6L1060.3 220.5L1054.0 221.3L1046.8 220.7L1039.9 220.0L1032.5 220.6L1024.7 220.3L1019.3 219.9L1011.1 220.8L1004.7 219.5L998.0 220.6L991.7 220.0L982.6 219.4L976.5 220.1L969.8 219.1L962.9 218.9L955.6 217.8L948.8 218.6L941.8 219.4L935.3 219.2L928.6 218.8L920.1 218.4L913.8 218.4L906.1 218.2L899.2 219.0L892.5 216.6L884.9 217.9L878.2 217.7L871.8 217.6L864.4 219.0L856.6 218.2L850.4 218.0L843.0 219.0L836.3 219.2L829.2 219.6L820.7 219.3L815.2 219.8L807.9 221.0L801.8 221.8L794.9 222.1L786.7 223.6L780.1 222.0L773.6 223.9L767.1 223.6L759.8 224.5L751.8 225.0L744.5 225.0L737.5 225.7L730.4 224.3L723.9 225.6L717.3 226.0L710.9 225.2L702.9 226.7L696.2 225.9L689.3 225.0L681.6 226.0L675.4 225.1L668.2 225.5L660.7 225.3L653.8 225.1L646.5 224.6L639.6 224.5L633.9 224.3L626.0 224.0L618.4 223.7L611.1 224.1L605.5 222.7L598.2 222.7L590.5 221.9L584.3 221.9L576.5 221.6L570.5 221.1L563.3 221.4L555.4 221.5L549.0 221.1L541.2 221.9L534.6 221.9L528.2 221.5L521.3 221.7L514.3 221.4L507.0 221.4L499.5 220.6L493.0 220.9L485.8 220.8L479.6 220.4L471.0 222.5L465.0 220.6L457.8 221.6L450.5 220.9L443.6 221.3L437.4 220.7L429.5 221.5L423.4 220.6L415.2 222.1L407.8 220.7L401.9 220.5L393.8 221.0L387.6 221.5L380.1 221.0L374.2 220.5L366.5 221.0L360.0 220.6L352.7 221.0L346.4 221.1L338.9 221.7L331.3 220.6L324.3 220.2L317.0 221.3L309.5 221.4L303.6 221.4L296.9 221.1L289.9 222.2L282.6 221.6L275.9 222.3L268.1 221.8L261.1 222.3L253.7 221.3L247.7 223.0L240.2 223.3L233.8 223.6L226.4 223.0L218.8 223.5L211.9 224.4L204.5 224.3L198.1 224.1L191.2 224.1L184.5 224.1L177.5 224.2L170.5 224.8L163.9 225.0L156.7 225.2L148.9 224.6L141.4 224.9L134.4 223.9L128.3 223.9L121.1 223.6L115.3 224.2L106.7 224.0L99.1 224.5L92.5 223.7L85.6 224.4L80.1 223.8L70.5 223.1L65.4 223.2L57.4 223.4L50.9 222.9L44.3 222.8L37.2 223.0L30.5 222.7L23.6 221.5L16.0 217.3L10.5 212.3L7.0 205.8L5.5 197.6L5.2 191.4L5.1 183.5L6.0 176.9L6.8 170.3L6.3 162.4L6.9 156.1L6.3 150.0L6.5 141.4L5.3 135.0L6.1 127.0L6.5 121.7L6.9 113.8L6.8 105.8L6.7 99.8L8.3 93.4L6.9 86.3L7.8 79.1L8.3 71.2L7.4 65.4L8.1 57.9L7.9 51.8L8.4 44.1L8.5 36.6L9.0 29.7L9.5 24.1L12.6 16.7L17.1 13.3L23.3 9.6L29.8 9.1Z" fill="none" stroke="#cfc9c0" stroke-width="2" stroke-linejoin="round" stroke-linecap="round" opacity="0.72"/><path d="M29.7 3.3L37.2 2.7L43.9 3.4L51.8 2.8L58.0 2.9L65.7 3.4L72.0 2.6L79.5 2.4L86.5 3.2L92.7 2.9L100.0 2.5L106.7 1.4L114.4 1.7L120.5 2.3L128.4 1.2L135.5 0.5L141.3 1.8L149.3 1.5L156.7 0.6L162.3 0.4L169.7 0.8L176.6 0.9L183.7 1.4L191.6 0.4L198.0 -0.1L205.5 -0.3L212.6 1.3L219.1 -0.4L225.8 0.8L234.2 1.2L239.4 0.8L247.8 2.4L255.3 1.4L261.6 1.9L269.3 1.9L276.0 1.2L282.5 3.1L289.7 2.5L296.6 3.8L303.4 3.8L309.7 4.9L317.7 4.9L324.0 5.7L331.0 6.7L337.5 7.4L345.0 6.0L352.7 6.6L359.6 6.1L367.4 8.0L373.5 7.3L380.3 7.0L388.0 7.9L395.7 8.8L401.2 8.8L409.0 8.5L415.8 8.1L422.7 8.3L429.2 8.1L436.5 9.0L443.3 9.1L450.5 7.5L457.6 9.1L465.4 10.4L471.6 8.9L478.8 9.5L486.6 9.7L493.6 9.8L498.7 11.1L506.6 10.8L513.2 10.0L520.8 10.1L527.3 10.4L534.8 11.3L542.4 11.9L548.6 11.8L555.9 12.5L562.9 12.2L570.6 11.6L576.7 13.1L583.8 11.6L591.0 11.3L597.9 12.3L605.3 11.8L612.9 11.1L618.5 10.4L626.1 10.9L632.6 9.1L640.7 10.0L647.6 9.9L654.4 8.2L661.1 9.0L668.8 7.3L675.2 8.3L683.4 6.1L689.3 6.9L695.1 7.2L702.1 6.0L709.8 6.2L717.6 5.5L724.2 5.1L730.8 4.9L738.3 3.5L745.1 5.1L753.0 4.4L759.5 4.2L766.0 4.7L773.1 4.3L779.5 3.6L787.1 4.6L794.9 4.2L801.4 4.4L808.4 3.5L815.7 3.2L822.6 2.9L829.2 2.3L836.9 2.4L843.4 1.8L850.7 1.2L857.6 1.3L864.7 0.7L872.2 0.8L879.0 -0.5L885.0 -0.8L893.2 -1.4L899.9 -1.2L907.1 -1.5L913.0 -2.2L921.2 -1.8L927.8 -3.3L934.1 -2.4L942.0 -1.8L948.5 -2.2L955.3 -0.9L963.4 -1.7L969.2 -1.4L976.6 -1.1L984.1 -0.6L990.4 -0.1L997.8 -0.4L1005.6 -0.4L1011.6 1.0L1018.7 1.6L1025.6 1.0L1032.8 1.6L1039.4 3.4L1046.1 3.9L1053.4 4.1L1060.7 4.5L1067.2 4.8L1074.8 6.1L1082.0 5.4L1088.5 5.1L1095.8 7.1L1102.7 7.5L1109.9 6.1L1116.8 6.6L1124.3 5.6L1131.4 6.2L1138.0 6.3L1144.7 7.3L1150.9 6.5L1158.9 6.1L1165.4 5.7L1172.4 5.3L1179.4 5.3L1187.0 5.3L1194.1 5.1L1201.3 4.6L1207.8 4.1L1214.7 4.3L1222.0 3.5L1229.1 3.3L1235.5 3.4L1243.0 2.2L1249.8 2.2L1258.7 3.4L1266.5 6.6L1272.8 12.9L1278.5 22.1L1279.6 30.1L1278.8 36.9L1279.0 44.5L1278.9 50.5L1279.3 57.8L1278.9 64.8L1278.6 71.0L1279.0 79.4L1278.1 85.4L1278.0 93.1L1277.5 99.3L1277.7 106.8L1278.2 114.5L1275.8 120.5L1276.6 128.0L1275.7 135.4L1275.6 141.7L1274.8 149.2L1275.3 155.6L1273.9 163.0L1273.9 169.9L1273.9 176.5L1273.9 184.2L1273.5 190.6L1273.1 198.2L1272.5 204.8L1268.7 210.7L1262.5 215.8L1257.2 220.1L1249.1 220.4L1242.7 219.8L1235.9 221.0L1229.1 220.4L1221.8 221.2L1214.1 221.3L1209.2 220.5L1201.3 221.2L1194.0 221.4L1186.9 221.7L1179.8 222.1L1172.4 223.2L1166.1 223.6L1159.4 224.0L1153.0 224.5L1144.2 225.7L1136.5 224.6L1131.1 226.7L1123.5 226.6L1117.6 226.5L1109.5 226.2L1102.5 228.1L1096.5 227.5L1087.8 226.9L1082.1 228.1L1074.8 227.7L1067.4 227.3L1060.1 227.5L1053.6 228.8L1046.6 226.7L1040.0 227.8L1032.3 227.9L1026.0 226.3L1018.2 226.7L1012.0 226.8L1005.5 224.5L997.6 225.3L989.8 224.5L984.2 224.2L976.2 223.1L969.4 224.1L962.0 224.0L956.8 222.9L949.4 221.8L941.3 221.8L934.2 221.8L927.4 220.4L920.5 219.1L914.3 221.1L906.1 219.2L899.3 220.9L892.1 220.0L884.8 219.7L878.7 220.3L871.3 220.7L864.5 220.2L856.9 220.0L851.2 220.4L843.6 219.9L836.7 219.4L828.9 220.1L821.9 220.7L815.3 219.4L807.3 220.4L801.3 219.3L793.6 219.5L788.7 219.0L781.0 219.7L773.6 219.4L766.4 219.6L758.7 219.2L751.6 219.7L744.6 219.4L739.0 220.1L730.3 219.0L724.5 219.3L717.5 218.8L710.3 219.8L703.5 219.9L695.7 220.7L689.0 219.4L683.0 219.8L674.8 219.4L668.3 220.6L661.6 220.9L654.2 221.1L646.9 222.5L640.8 223.1L633.8 222.8L625.9 223.0L618.0 223.7L611.6 225.2L605.6 225.8L596.8 226.5L591.1 227.0L584.0 226.8L576.7 228.2L569.7 227.2L563.3 228.7L556.2 228.5L549.2 229.4L542.6 229.8L534.5 228.6L527.2 230.2L521.0 230.5L513.6 230.5L506.3 230.3L499.3 229.1L492.6 229.7L484.8 229.5L479.3 229.1L471.8 228.8L465.0 229.9L457.8 228.6L451.0 228.8L443.4 227.3L436.2 228.5L429.7 227.8L423.0 227.0L415.3 227.1L408.5 226.4L402.5 226.5L395.2 225.9L388.6 225.1L381.1 225.5L372.6 225.5L367.2 225.2L359.8 225.8L352.8 224.6L345.4 225.6L338.6 225.2L331.3 224.0L325.4 225.2L317.7 225.2L311.4 224.5L304.3 224.4L297.0 224.9L289.5 224.2L281.4 224.3L274.9 224.7L267.6 225.0L260.9 223.5L253.9 223.7L247.2 224.0L239.8 223.5L233.6 223.7L224.7 223.0L219.7 222.3L213.4 222.8L205.1 222.0L198.3 222.3L190.2 221.5L185.4 222.5L178.2 222.0L170.1 222.5L163.0 221.7L157.2 222.0L148.7 221.9L142.7 222.1L135.6 222.6L127.9 222.2L121.5 222.4L113.0 222.1L107.7 223.5L100.2 222.1L92.8 223.3L86.2 222.9L79.1 222.5L72.0 224.2L65.4 224.0L58.0 224.5L50.4 224.7L44.6 224.4L37.0 224.7L29.2 225.2L22.2 223.7L15.3 219.9L8.7 215.0L3.9 207.3L2.2 197.5L2.9 190.5L2.7 184.1L2.7 177.0L2.2 170.1L2.5 162.9L1.9 155.8L1.8 149.4L3.1 142.5L2.6 135.6L3.2 127.9L1.8 121.6L2.4 114.3L1.8 106.7L2.5 100.0L3.7 94.0L2.9 86.2L2.3 79.4L3.7 72.1L1.6 65.3L3.4 57.5L2.8 50.7L2.7 43.7L2.5 36.2L3.2 29.0L4.4 22.0L7.3 13.4L14.5 9.2L21.2 4.0L29.7 3.3Z" fill="none" stroke="#cfc9c0" stroke-width="1" stroke-linejoin="round" stroke-linecap="round" opacity="0.46"/><text x="52" y="74" font-family="ui-monospace,'SFMono-Regular',Menlo,Consolas,monospace" font-size="30" font-weight="900" letter-spacing="2" fill="#8d887f" opacity="0.45" text-anchor="start">05</text><text x="116" y="76" font-family="'Arial Black','Helvetica Neue',Helvetica,Arial,sans-serif" font-size="33" font-weight="900" letter-spacing="3" fill="#ece8e0" opacity="1.0" text-anchor="start">SGI / INDUSTRIAL KPIs</text><text x="53" y="116" font-family="ui-monospace,'SFMono-Regular',Menlo,Consolas,monospace" font-size="16.5" font-weight="400" letter-spacing="0.5" fill="#8d887f" opacity="0.95" text-anchor="start">Executive dashboard for industrial KPIs - trends, targets and Excel ingestion.</text><text x="53" y="148" font-family="ui-monospace,'SFMono-Regular',Menlo,Consolas,monospace" font-size="16" font-weight="700" letter-spacing="0.5" fill="#ece8e0" opacity="0.95" text-anchor="start">Behind the central SSO - turns spreadsheet reporting into living dashboards</text><text x="1216" y="66" font-family="ui-monospace,'SFMono-Regular',Menlo,Consolas,monospace" font-size="13" font-weight="700" letter-spacing="3" fill="#8d887f" opacity="0.8" text-anchor="end">IN PRODUCTION</text><text x="1216" y="152" font-family="'Arial Black','Helvetica Neue',Helvetica,Arial,sans-serif" font-size="84" font-weight="900" letter-spacing="0" fill="#ece8e0" opacity="1.0" text-anchor="end">B/G</text><path d="M1042.4 166.9L1055.8 163.1L1070.2 165.1L1087.8 166.1L1100.6 166.5L1114.6 167.4L1129.5 164.8L1142.3 164.5L1157.5 167.3L1172.1 166.4L1186.6 165.9L1199.3 165.0L1217.1 164.6" fill="none" stroke="#ece8e0" stroke-width="2.4" stroke-linecap="round" opacity="0.90"/><path d="M1040.8 167.8L1054.7 165.3L1072.2 169.8L1086.3 165.9L1099.5 165.5L1113.8 164.1L1128.6 168.4L1142.0 166.0L1157.2 165.5L1173.3 168.8L1186.6 166.2L1203.3 170.3L1216.6 165.4" fill="none" stroke="#ece8e0" stroke-width="1.6" stroke-linecap="round" opacity="0.55"/><text x="1216" y="190" font-family="ui-monospace,'SFMono-Regular',Menlo,Consolas,monospace" font-size="13" font-weight="700" letter-spacing="3" fill="#8d887f" opacity="0.85" text-anchor="end">DEPLOY MODEL</text><path d="M52 168H1002" stroke="#242424" stroke-width="1.5"/><rect x="52.0" y="184.0" width="55.0" height="28" rx="8" ry="8" fill="#151515" stroke="#303030" stroke-width="1.3"/><text x="79.5" y="202.5" font-family="ui-monospace,'SFMono-Regular',Menlo,Consolas,monospace" font-size="12.5" font-weight="700" letter-spacing="0" fill="#ece8e0" opacity="0.95" text-anchor="middle">React</text><rect x="116.0" y="184.0" width="90.0" height="28" rx="8" ry="8" fill="#151515" stroke="#303030" stroke-width="1.3"/><text x="161.0" y="202.5" font-family="ui-monospace,'SFMono-Regular',Menlo,Consolas,monospace" font-size="12.5" font-weight="700" letter-spacing="0" fill="#ece8e0" opacity="0.95" text-anchor="middle">TypeScript</text><rect x="215.0" y="184.0" width="48.0" height="28" rx="8" ry="8" fill="#151515" stroke="#303030" stroke-width="1.3"/><text x="239.0" y="202.5" font-family="ui-monospace,'SFMono-Regular',Menlo,Consolas,monospace" font-size="12.5" font-weight="700" letter-spacing="0" fill="#ece8e0" opacity="0.95" text-anchor="middle">Vite</text><rect x="272.0" y="184.0" width="83.0" height="28" rx="8" ry="8" fill="#151515" stroke="#303030" stroke-width="1.3"/><text x="313.5" y="202.5" font-family="ui-monospace,'SFMono-Regular',Menlo,Consolas,monospace" font-size="12.5" font-weight="700" letter-spacing="0" fill="#ece8e0" opacity="0.95" text-anchor="middle">shadcn/ui</text><rect x="364.0" y="184.0" width="76.0" height="28" rx="8" ry="8" fill="#151515" stroke="#303030" stroke-width="1.3"/><text x="402.0" y="202.5" font-family="ui-monospace,'SFMono-Regular',Menlo,Consolas,monospace" font-size="12.5" font-weight="700" letter-spacing="0" fill="#ece8e0" opacity="0.95" text-anchor="middle">Supabase</text></svg>